<svg xmlns="http://www.w3.org/2000/svg" viewBox="0 0 128 128" role="img" aria-labelledby="title desc">
  <title id="title">Plunge Patrol maskable icon</title>
  <desc id="desc">A full teal square with a cream letter P and an aqua wave inset for maskable app icons.</desc>
  <rect width="128" height="128" fill="#0a4f52"/>
  <svg x="14" y="14" width="100" height="100" viewBox="0 0 128 128" aria-hidden="true">
    <path
      fill="#fff8ee"
      d="M34 22h28c19 0 34 15 34 34S81 90 62 90H50v16H34V22zm16 16v36h12c10 0 18-8 18-18s-8-18-18-18H50z"
    />
    <path
      fill="none"
      stroke="#93ddd5"
      stroke-linecap="round"
      stroke-width="8"
      d="M24 92c8-6 16-6 24 0s16 6 24 0 16-6 24 0 16 6 24 0 16-6 24 0"
    />
  </svg>
</svg>
